<svg id="Group_5557" data-name="Group 5557" xmlns="http://www.w3.org/2000/svg" xmlns:xlink="http://www.w3.org/1999/xlink" width="36.243" height="30.292" viewBox="0 0 36.243 30.292">
  <defs>
    <clipPath id="clip-path">
      <rect id="Rectangle_30042" data-name="Rectangle 30042" width="36.243" height="30.292"/>
    </clipPath>
  </defs>
  <g id="Group_5556" data-name="Group 5556" clip-path="url(#clip-path)">
    <path id="Path_42814" data-name="Path 42814" d="M11.2,26.659A14.418,14.418,0,0,1,7,26.284,9.686,9.686,0,0,1,8.512,7.365c.246-.029.295-.153.358-.348A9.439,9.439,0,0,1,16.755.126,9.6,9.6,0,0,1,27.45,6.981a.481.481,0,0,0,.473.407,9.67,9.67,0,0,1-.346,19.191c-1.539.14-3.1.075-4.649.069A1.182,1.182,0,0,1,21.8,25.409,1.2,1.2,0,0,1,23,24.241c1.211-.012,2.422,0,3.632-.005a7.265,7.265,0,0,0,.2-14.528,1.365,1.365,0,0,1-1.542-1.316,7.248,7.248,0,0,0-14.252-.058c-.2,1.064-.536,1.349-1.629,1.374A7.258,7.258,0,0,0,8.208,24.074a15.292,15.292,0,0,0,2.333.158c.882.025,1.766,0,2.648.006a1.218,1.218,0,1,1-.016,2.421c-.656,0-1.312,0-1.968,0" transform="translate(0 0)"/>
    <path id="Path_42815" data-name="Path 42815" d="M114.02,100.06c-.146.134-.238.212-.323.3q-1.807,1.8-3.613,3.611a1.178,1.178,0,0,1-1.282.323,1.151,1.151,0,0,1-.8-.964,1.114,1.114,0,0,1,.319-1.007q3.031-3.042,6.074-6.073a1.191,1.191,0,0,1,1.781.094q2.786,2.779,5.566,5.564c.125.125.252.247.373.376a1.208,1.208,0,1,1-1.723,1.694c-1.219-1.207-2.428-2.424-3.641-3.637-.078-.078-.161-.15-.306-.285v.465q0,7.246,0,14.492a2.661,2.661,0,0,1-.023.49,1.209,1.209,0,0,1-2.4-.172c-.007-.126,0-.252,0-.378V100.06Z" transform="translate(-97.062 -86.195)"/>
  </g>
</svg>
