<svg xmlns="http://www.w3.org/2000/svg" width="15.953" height="15.95" viewBox="53.808 9.912 15.953 15.95"><path d="M61.786 13.798a4.083 4.083 0 0 0-4.089 4.089 4.083 4.083 0 0 0 4.09 4.09 4.083 4.083 0 0 0 4.089-4.09 4.083 4.083 0 0 0-4.09-4.09Zm0 6.747a2.663 2.663 0 0 1-2.658-2.658 2.661 2.661 0 0 1 2.658-2.659 2.661 2.661 0 0 1 2.659 2.659 2.663 2.663 0 0 1-2.659 2.658Zm5.21-6.915c0 .53-.426.954-.953.954a.954.954 0 1 1 .954-.954Zm2.71.968c-.061-1.277-.353-2.41-1.29-3.342-.932-.932-2.063-1.224-3.341-1.288-1.317-.075-5.264-.075-6.58 0-1.275.06-2.406.352-3.342 1.285-.936.932-1.225 2.064-1.289 3.342-.075 1.317-.075 5.264 0 6.58.06 1.278.353 2.41 1.289 3.342.936.933 2.064 1.224 3.341 1.289 1.317.074 5.264.074 6.58 0 1.279-.06 2.41-.353 3.343-1.289.932-.932 1.224-2.064 1.288-3.342.075-1.316.075-5.26 0-6.577Zm-1.702 7.99a2.692 2.692 0 0 1-1.516 1.516c-1.05.417-3.541.32-4.702.32-1.16 0-3.655.093-4.7-.32a2.692 2.692 0 0 1-1.517-1.516c-.416-1.05-.32-3.54-.32-4.701 0-1.16-.093-3.655.32-4.702a2.692 2.692 0 0 1 1.516-1.516c1.05-.416 3.541-.32 4.701-.32 1.16 0 3.656-.093 4.702.32a2.692 2.692 0 0 1 1.516 1.516c.416 1.05.32 3.542.32 4.702 0 1.16.096 3.655-.32 4.701Z" fill-rule="evenodd" data-name="Icon awesome-instagram"/></svg>