<svg xmlns="http://www.w3.org/2000/svg" width="15.684" height="12.738" viewBox="9.912 12.036 15.684 12.738"><path d="M23.984 15.21c.01.14.01.28.01.419 0 4.249-3.235 9.145-9.146 9.145a9.084 9.084 0 0 1-4.936-1.443c.259.03.508.04.776.04a6.438 6.438 0 0 0 3.99-1.373 3.22 3.22 0 0 1-3.005-2.23c.2.03.399.05.608.05a3.4 3.4 0 0 0 .845-.11 3.215 3.215 0 0 1-2.577-3.154v-.04c.428.24.925.388 1.453.408a3.212 3.212 0 0 1-1.433-2.677c0-.597.159-1.144.438-1.622a9.137 9.137 0 0 0 6.628 3.364 3.629 3.629 0 0 1-.08-.737 3.213 3.213 0 0 1 3.214-3.214c.926 0 1.762.388 2.349 1.015a6.329 6.329 0 0 0 2.04-.776 3.206 3.206 0 0 1-1.413 1.771 6.444 6.444 0 0 0 1.85-.497 6.91 6.91 0 0 1-1.611 1.662Z" fill="#fff" fill-rule="evenodd" data-name="Icon awesome-twitter"/></svg>