<svg xmlns="http://www.w3.org/2000/svg" width="137.518" height="136.804" viewBox="0 0 137.518 136.804">
  <g id="Group_48836" data-name="Group 48836" transform="translate(-5013 4905.959)">
    <path id="Path_24" data-name="Path 24" d="M76.107,68.69c0,20.652.059,41.3-.091,61.954-.015,2.072-1.295,4.134-1.989,6.2-2-.811-4.4-1.161-5.923-2.508-10.848-9.6-21.435-19.5-32.322-29.053a12.177,12.177,0,0,0-7-2.68c-7.479-.34-14.985-.232-22.477-.087-4.487.086-6.314-1.92-6.3-6.31q.105-27.73,0-55.46c-.025-4.793,2.208-6.5,6.752-6.4,7.158.151,14.337.313,21.475-.093A13.935,13.935,0,0,0,36.1,31.272c10.93-9.5,21.514-19.407,32.366-29C69.866,1.026,72.133.759,74,.041c.7,1.9,2,3.792,2.017,5.7.146,20.983.092,41.968.089,62.953" transform="translate(5013 -4906)" fill="#fff"/>
    <path id="Path_25" data-name="Path 25" d="M137.518,68.476c-.617,18.723-4.878,36.366-14,52.694-1.184,2.121-3.433,4.4-5.62,4.979-1.9.5-5.591-.685-6.38-2.215-1.16-2.25-1.473-5.993-.354-8.185,5.736-11.247,9.879-22.9,11.392-35.467a95.822,95.822,0,0,0-10.272-56.619c-.382-.74-.809-1.458-1.157-2.213-1.93-4.2-.889-8.2,2.785-9.82,4.025-1.777,7.664-.527,9.2,3.351,4.271,10.786,8.56,21.622,11.778,32.746,1.914,6.616,1.819,13.813,2.627,20.749" transform="translate(5013 -4906)" fill="#fff"/>
    <path id="Path_26" data-name="Path 26" d="M109.637,68.718a81.21,81.21,0,0,1-9.075,37.517c-2.495,4.825-5.806,6.454-9.464,4.709s-4.443-5.532-2.124-10.259q15.68-31.953.241-64.019c-2.333-4.866-1.548-8.457,2.17-10.254,3.653-1.764,7-.14,9.445,4.713a81.626,81.626,0,0,1,8.807,37.593" transform="translate(5013 -4906)" fill="#fff"/>
  </g>
</svg>
