<svg xmlns="http://www.w3.org/2000/svg" width="137.075" height="136.922" viewBox="0 0 137.075 136.922">
  <g id="Group_48835" data-name="Group 48835" transform="translate(-5349.111 4906)">
    <path id="Path_27" data-name="Path 27" d="M374.151,29.706C384.858,20,394.406,11.218,404.138,2.645,405.684,1.283,408.055.858,410.045,0c.71,2.052,2.017,4.1,2.036,6.156.164,18.491-.013,36.986.243,55.475a12.584,12.584,0,0,0,3.059,7.26c4.506,5.3,9.482,10.206,15.355,16.41.76-3.532,1.273-5.331,1.524-7.166a71.371,71.371,0,0,0-6.725-41.3,10.8,10.8,0,0,1-.721-7.463c.574-1.635,3.655-3.572,5.346-3.344a9.281,9.281,0,0,1,6.107,4.106,77.031,77.031,0,0,1,9.367,42.359A96.182,96.182,0,0,1,442.788,90.2c-.9,3.553-.577,5.9,2.216,8.3,2.238,1.922,3.98,4.421,5.942,6.665l1.856-.431c1.763-6.636,4.051-13.183,5.19-19.924a94.873,94.873,0,0,0-9.8-61.52c-.077-.147-.161-.291-.237-.439-2.68-5.195-1.953-9.2,2.031-11.193,3.792-1.893,7.469-.273,10.061,4.551a108.425,108.425,0,0,1,12.04,36.843,107.725,107.725,0,0,1-7.861,58.666c-1.388,3.187-.881,5.017,1.552,7.292,4.383,4.1,4.64,8.872,1.145,12.166-3.4,3.207-7.614,2.786-11.85-1.4Q398.522,73.957,342.019,18.088c-4.416-4.366-4.906-8.734-1.553-12.217,3.314-3.442,7.914-3.05,12.2,1.348,7.09,7.27,14.037,14.678,21.482,22.487" transform="translate(5013 -4906)" fill="#fff"/>
    <path id="Path_28" data-name="Path 28" d="M336.17,67.976c0-8.818-.2-17.644.135-26.45.087-2.291,1.307-5.7,2.966-6.44,1.64-.728,5.124.629,6.718,2.182q31.818,30.994,63.214,62.42a11.118,11.118,0,0,1,2.85,6.853c.336,8.472.256,16.969.021,25.448a6.551,6.551,0,0,1-2.392,4.792c-.879.549-3.419-.609-4.618-1.675-10.935-9.733-21.628-19.742-32.679-29.338a14.813,14.813,0,0,0-8.305-3.141c-7.128-.44-14.3-.268-21.454-.1-4.72.11-6.583-1.95-6.505-6.6.155-9.315.046-18.634.049-27.952" transform="translate(5013 -4906)" fill="#fff"/>
  </g>
</svg>
