<svg id="Group_2718" data-name="Group 2718" xmlns="http://www.w3.org/2000/svg" width="20.179" height="20.458" viewBox="0 0 20.179 20.458">
  <path id="Path_2538" data-name="Path 2538" d="M-33.684,495.973c.07,1.8.116,3.605.218,5.405a4.439,4.439,0,0,1-1.8,4,3.926,3.926,0,0,1-2.46.827q-5.765,0-11.53,0a4.368,4.368,0,0,1-4.382-4.379c.009-1.43.093-2.859.146-4.289s.109-2.844.164-4.265c.047-1.209.061-2.42.15-3.626a4.327,4.327,0,0,1,3.425-3.8,5.177,5.177,0,0,1,.973-.095q5.217-.01,10.434,0a4.335,4.335,0,0,1,4.4,3.84c.09.7.077,1.412.1,2.119Q-33.757,493.84-33.684,495.973Zm-18.269-.075h-.052c0,.471.012.943,0,1.414-.045,1.422-.081,2.845-.158,4.266a2.94,2.94,0,0,0,2.944,3.164q5.742.01,11.485,0a2.815,2.815,0,0,0,.784-.12,3.015,3.015,0,0,0,2.078-2.956c-.024-1.2-.087-2.4-.131-3.6q-.144-3.969-.287-7.938a3.037,3.037,0,0,0-.442-1.56,2.866,2.866,0,0,0-2.584-1.352q-5.137,0-10.274,0a5.741,5.741,0,0,0-.659.04,2.89,2.89,0,0,0-2.475,2.649C-51.81,491.9-51.879,493.9-51.953,495.9Z" transform="translate(53.635 -485.747)"/>
  <path id="Path_2539" data-name="Path 2539" d="M-30.619,502.144a5.121,5.121,0,0,1-5.059-4.311,5.433,5.433,0,0,1-.058-.84.67.67,0,0,1,.71-.718.678.678,0,0,1,.746.707,3.563,3.563,0,0,0,1.035,2.576,3.53,3.53,0,0,0,3.736.915,3.473,3.473,0,0,0,2.482-2.85,4.473,4.473,0,0,0,.055-.658.683.683,0,0,1,.742-.69.677.677,0,0,1,.718.69,5.073,5.073,0,0,1-4.137,5.061C-29.97,502.081-30.3,502.105-30.619,502.144Z" transform="translate(40.706 -493.351)"/>
</svg>
