<svg xmlns="http://www.w3.org/2000/svg" xmlns:xlink="http://www.w3.org/1999/xlink" width="24" height="25" viewBox="0 0 24 25">
  <defs>
    <clipPath id="clip-path">
      <rect id="Rectangle_405" data-name="Rectangle 405" width="24" height="25" fill="none"/>
    </clipPath>
  </defs>
  <g id="Group_3189" data-name="Group 3189" transform="translate(0 0)">
    <g id="Group_3188" data-name="Group 3188" transform="translate(0 -0.001)" clip-path="url(#clip-path)">
      <path id="Path_4186" data-name="Path 4186" d="M20.613,13.927c0,1.151-.007,2.3,0,3.452a.593.593,0,0,1-.367.614c-2.011.994-4.022,1.987-6.017,3.013a1,1,0,0,1-1.03-.012C11.223,19.98,9.23,18.988,7.234,18a.612.612,0,0,1-.38-.631c.006-2.336,0-4.673,0-7.009a.432.432,0,0,1,.235-.429Q9.844,8.556,12.6,7.181c.3-.152.6-.324.914-.449a.614.614,0,0,1,.45,0c2.141,1.056,4.274,2.127,6.409,3.194a.425.425,0,0,1,.245.421c0,1.194,0,2.389,0,3.583h-.007m-6.524,6.313c.074-.027.106-.036.136-.051q2.756-1.381,5.515-2.758c.157-.078.169-.183.169-.332q0-2.99,0-5.979c0-.066-.007-.133-.011-.221-.074.028-.128.045-.179.07-1.82.91-3.637,1.825-5.459,2.728-.158.078-.17.179-.169.328q0,2.977,0,5.953v.262M7.58,10.9c-.007.067-.014.108-.014.149,0,2.037,0,4.073-.006,6.11,0,.186.1.236.221.3q2.665,1.333,5.33,2.67c.08.04.164.073.267.119v-.293c0-1.966,0-3.932.005-5.9a.368.368,0,0,0-.233-.395q-2.678-1.327-5.348-2.67c-.065-.033-.135-.055-.221-.091m8.587-2.26C15.4,8.258,14.673,7.9,13.95,7.525a.41.41,0,0,0-.422,0c-1.569.792-3.142,1.574-4.713,2.36l-.765.386c.763.384,1.491.745,2.213,1.117a.435.435,0,0,0,.444,0q2.6-1.314,5.212-2.615c.073-.036.143-.077.248-.134M11.3,11.9c.809.406,1.572.793,2.341,1.166a.376.376,0,0,0,.281-.043q2.642-1.312,5.28-2.636c.062-.031.119-.072.2-.122-.778-.39-1.52-.768-2.268-1.13a.42.42,0,0,0-.325.014c-.59.282-1.172.58-1.757.873L11.3,11.9" transform="translate(-1.713 -1.469)"/>
      <path id="Path_4187" data-name="Path 4187" d="M20.613,13.927c0,1.151-.007,2.3,0,3.452a.593.593,0,0,1-.367.614c-2.011.994-4.022,1.987-6.017,3.013a1,1,0,0,1-1.03-.012C11.223,19.98,9.23,18.988,7.234,18a.612.612,0,0,1-.38-.631c.006-2.336,0-4.673,0-7.009a.432.432,0,0,1,.235-.429Q9.844,8.556,12.6,7.181c.3-.152.6-.324.914-.449a.614.614,0,0,1,.45,0c2.141,1.056,4.274,2.127,6.409,3.194a.425.425,0,0,1,.245.421c0,1.194,0,2.389,0,3.583Zm-6.524,6.313c.074-.027.106-.036.136-.051q2.756-1.381,5.515-2.758c.157-.078.169-.183.169-.332q0-2.99,0-5.979c0-.066-.007-.133-.011-.221-.074.028-.128.045-.179.07-1.82.91-3.637,1.825-5.459,2.728-.158.078-.17.179-.169.328q0,2.977,0,5.953ZM7.58,10.9c-.007.067-.014.108-.014.149,0,2.037,0,4.073-.006,6.11,0,.186.1.236.221.3q2.665,1.333,5.33,2.67c.08.04.164.073.267.119v-.293c0-1.966,0-3.932.005-5.9a.368.368,0,0,0-.233-.395q-2.678-1.327-5.348-2.67C7.736,10.959,7.666,10.937,7.58,10.9Zm8.587-2.26C15.4,8.258,14.673,7.9,13.95,7.525a.41.41,0,0,0-.422,0c-1.569.792-3.142,1.574-4.713,2.36l-.765.386c.763.384,1.491.745,2.213,1.117a.435.435,0,0,0,.444,0q2.6-1.314,5.212-2.615C15.992,8.74,16.062,8.7,16.167,8.641ZM11.3,11.9c.809.406,1.572.793,2.341,1.166a.376.376,0,0,0,.281-.043q2.642-1.312,5.28-2.636c.062-.031.119-.072.2-.122-.778-.39-1.52-.768-2.268-1.13a.42.42,0,0,0-.325.014c-.59.282-1.172.58-1.757.873Z" transform="translate(-1.713 -1.469)" fill="none" stroke="#000" stroke-miterlimit="10" stroke-width="0.3"/>
      <path id="Path_4188" data-name="Path 4188" d="M4.673,22.637a10.98,10.98,0,0,0,9,3.58,11.26,11.26,0,0,0,9.793-8.175,11.871,11.871,0,0,0-.236-7.563c-.036-.1-.078-.2-.1-.3a.352.352,0,0,1,.211-.47.321.321,0,0,1,.446.225,14.109,14.109,0,0,1,.488,1.52,12.5,12.5,0,0,1-3.988,12.788,10.741,10.741,0,0,1-6.511,2.728A11.509,11.509,0,0,1,4.181,23.2c-.035-.036-.071-.069-.14-.135-.059.547-.115,1.056-.17,1.564-.035.314-.065.629-.1.942-.031.257-.192.4-.4.37a.371.371,0,0,1-.3-.445q.17-1.662.346-3.324c.029-.264.167-.4.428-.37q1.611.17,3.221.36a.348.348,0,0,1,.323.416.356.356,0,0,1-.432.3c-.638-.069-1.275-.144-1.913-.215-.1-.011-.2-.016-.369-.03" transform="translate(-0.766 -2.128)"/>
      <path id="Path_4189" data-name="Path 4189" d="M4.673,22.637a10.98,10.98,0,0,0,9,3.58,11.26,11.26,0,0,0,9.793-8.175,11.871,11.871,0,0,0-.236-7.563c-.036-.1-.078-.2-.1-.3a.352.352,0,0,1,.211-.47.321.321,0,0,1,.446.225,14.109,14.109,0,0,1,.488,1.52,12.5,12.5,0,0,1-3.988,12.788,10.741,10.741,0,0,1-6.511,2.728A11.509,11.509,0,0,1,4.181,23.2c-.035-.036-.071-.069-.14-.135-.059.547-.115,1.056-.17,1.564-.035.314-.065.629-.1.942-.031.257-.192.4-.4.37a.371.371,0,0,1-.3-.445q.17-1.662.346-3.324c.029-.264.167-.4.428-.37q1.611.17,3.221.36a.348.348,0,0,1,.323.416.356.356,0,0,1-.432.3c-.638-.069-1.275-.144-1.913-.215C4.942,22.657,4.841,22.651,4.673,22.637Z" transform="translate(-0.766 -2.128)" fill="none" stroke="#000" stroke-miterlimit="10" stroke-width="0.3"/>
      <path id="Path_4190" data-name="Path 4190" d="M20.194,4.578A10.981,10.981,0,0,0,11.25.96a11.373,11.373,0,0,0-10.2,9.557A11.98,11.98,0,0,0,1.61,16.7c.012.033.023.066.034.1.1.288.034.492-.179.573s-.383-.023-.493-.314C-1.46,10.588,1.69,3.222,8,.944c4.76-1.719,9-.621,12.625,3.03a.422.422,0,0,0,.182.144c.038-.323.078-.646.113-.969.055-.5.106-.994.158-1.492.031-.283.173-.427.4-.4s.335.2.305.485q-.17,1.663-.347,3.324a.369.369,0,0,1-.46.36c-.822-.091-1.644-.189-2.465-.283-.227-.027-.453-.05-.68-.078a.363.363,0,0,1-.366-.407.358.358,0,0,1,.44-.322c.713.079,1.426.164,2.139.245.033,0,.067,0,.155,0" transform="translate(-0.038 -0.033)"/>
      <path id="Path_4191" data-name="Path 4191" d="M20.194,4.578A10.981,10.981,0,0,0,11.25.96a11.373,11.373,0,0,0-10.2,9.557A11.98,11.98,0,0,0,1.61,16.7c.012.033.023.066.034.1.1.288.034.492-.179.573s-.383-.023-.493-.314C-1.46,10.588,1.69,3.222,8,.944c4.76-1.719,9-.621,12.625,3.03a.422.422,0,0,0,.182.144c.038-.323.078-.646.113-.969.055-.5.106-.994.158-1.492.031-.283.173-.427.4-.4s.335.2.305.485q-.17,1.663-.347,3.324a.369.369,0,0,1-.46.36c-.822-.091-1.644-.189-2.465-.283-.227-.027-.453-.05-.68-.078a.363.363,0,0,1-.366-.407.358.358,0,0,1,.44-.322c.713.079,1.426.164,2.139.245C20.073,4.582,20.107,4.578,20.194,4.578Z" transform="translate(-0.038 -0.033)" fill="none" stroke="#000" stroke-miterlimit="10" stroke-width="0.3"/>
      <path id="Path_4192" data-name="Path 4192" d="M12.434,17.023c.005.333-.257.527-.5.41-.649-.311-1.292-.637-1.931-.968A.331.331,0,0,1,9.846,16a.317.317,0,0,1,.461-.182c.647.314,1.294.632,1.932.965.1.051.154.188.194.24" transform="translate(-2.451 -3.467)"/>
      <path id="Path_4193" data-name="Path 4193" d="M12.434,17.023c.005.333-.257.527-.5.41-.649-.311-1.292-.637-1.931-.968A.331.331,0,0,1,9.846,16a.317.317,0,0,1,.461-.182c.647.314,1.294.632,1.932.965C12.338,16.833,12.393,16.97,12.434,17.023Z" transform="translate(-2.451 -3.467)" fill="none" stroke="#000" stroke-miterlimit="10" stroke-width="0.3"/>
    </g>
  </g>
</svg>
