<svg xmlns="http://www.w3.org/2000/svg" xmlns:xlink="http://www.w3.org/1999/xlink" width="23" height="25" viewBox="0 0 23 25">
  <defs>
    <clipPath id="clip-path">
      <rect id="Rectangle_434" data-name="Rectangle 434" width="23" height="25" fill="none"/>
    </clipPath>
  </defs>
  <g id="Group_3194" data-name="Group 3194" transform="translate(0 0)">
    <g id="Group_3193" data-name="Group 3193" transform="translate(0 0)" clip-path="url(#clip-path)">
      <path id="Path_4205" data-name="Path 4205" d="M34.548,23.076V1.924h-.3c-1.943,0-3.887,0-5.831,0A.954.954,0,0,1,27.592.5a.877.877,0,0,1,.849-.5c2.045,0,4.09,0,6.136,0a1.6,1.6,0,0,1,.408.059,1.89,1.89,0,0,1,1.342,1.862q0,10.573,0,21.147A1.851,1.851,0,0,1,34.551,25q-3.04,0-6.08,0a.961.961,0,1,1,0-1.922h6.079" transform="translate(-13.328 0)"/>
      <path id="Path_4206" data-name="Path 4206" d="M15.48,17.46H1.083a1.859,1.859,0,0,1-.358-.017A.958.958,0,0,1,0,16.42a.926.926,0,0,1,.837-.88c.092-.006.184,0,.277,0H15.538c-.1-.118-.162-.2-.23-.271-1.368-1.488-2.741-2.969-4.1-4.469a1.446,1.446,0,0,1-.323-.7.862.862,0,0,1,.456-.912.842.842,0,0,1,.983.127c.077.072.146.153.218.231L18.3,15.782a1.025,1.025,0,0,1,0,1.438q-2.907,3.15-5.817,6.3a1.307,1.307,0,0,1-.55.366.811.811,0,0,1-.956-.471,1.037,1.037,0,0,1,.179-1.157q2.069-2.255,4.143-4.5c.071-.077.153-.141.23-.21l-.044-.08" transform="translate(0 -3.998)"/>
    </g>
  </g>
</svg>
