<svg id="Group_3197" data-name="Group 3197" xmlns="http://www.w3.org/2000/svg" xmlns:xlink="http://www.w3.org/1999/xlink" width="24" height="24.785" viewBox="0 0 24 24.785">
  <defs>
    <clipPath id="clip-path">
      <rect id="Rectangle_435" data-name="Rectangle 435" width="24" height="24.785" fill="none"/>
    </clipPath>
  </defs>
  <g id="Group_3196" data-name="Group 3196" transform="translate(0 0)" clip-path="url(#clip-path)">
    <path id="Path_4207" data-name="Path 4207" d="M.25,21.131c.025-.053.054-.106.076-.16a1.148,1.148,0,0,1,1.03-.768c.069-.006.139-.007.208-.007.558,0,.763-.165.845-.719a.6.6,0,0,0-.126-.372c-.1-.144-.246-.254-.358-.39a1.127,1.127,0,0,1-.009-1.449,16.642,16.642,0,0,1,1.32-1.325,1.119,1.119,0,0,1,1.467.011c.13.108.247.232.368.351a.423.423,0,0,0,.486.1c.115-.046.229-.092.341-.141a.42.42,0,0,0,.273-.416c0-.146,0-.293,0-.439A1.157,1.157,0,0,1,7.3,14.283q.843-.027,1.687,0a1.147,1.147,0,0,1,1.117,1.107c0,.061.006.123.006.185,0,.572.14.748.713.85a.581.581,0,0,0,.372-.116c.151-.1.266-.257.41-.371a1.123,1.123,0,0,1,1.467.02c.445.4.871.83,1.275,1.273a1.131,1.131,0,0,1,.012,1.486c-.112.137-.24.26-.364.387a.413.413,0,0,0-.1.467c.033.086.077.169.1.257a.508.508,0,0,0,.564.372,2.317,2.317,0,0,1,.639.06,1.1,1.1,0,0,1,.814,1.035c.017.569.02,1.141,0,1.71a1.157,1.157,0,0,1-1.124,1.13c-.054,0-.108,0-.162,0-.583,0-.742.12-.854.7a.61.61,0,0,0,.123.392c.1.145.248.253.358.39a1.11,1.11,0,0,1,.016,1.43,16.253,16.253,0,0,1-1.355,1.355,1.12,1.12,0,0,1-1.412,0c-.144-.115-.273-.25-.406-.377a.408.408,0,0,0-.486-.1c-.105.046-.211.092-.319.133a.426.426,0,0,0-.291.428c0,.123,0,.247,0,.37a1.173,1.173,0,0,1-.84,1.146.682.682,0,0,0-.1.052H7.142a.9.9,0,0,0-.1-.046,1.185,1.185,0,0,1-.868-1.172,1.641,1.641,0,0,0-.009-.391.61.61,0,0,0-.2-.335c-.508-.333-.665-.309-1.1.113-.017.017-.032.033-.05.049a1.185,1.185,0,0,1-1.717.008c-.369-.348-.724-.713-1.08-1.076a1.083,1.083,0,0,1-.319-1.12,2.162,2.162,0,0,1,.46-.724c.3-.339.322-.372.145-.793-.018-.043-.038-.084-.054-.128a.431.431,0,0,0-.461-.307,3.454,3.454,0,0,1-.439-.006,1.232,1.232,0,0,1-1.1-.964V21.131M3.24,19.3a2.216,2.216,0,0,1-.547,1.324,1.558,1.558,0,0,1-.62.323,2.018,2.018,0,0,1-.55.037c-.336.01-.481.146-.484.478,0,.462,0,.925,0,1.387,0,.358.148.494.513.5a4.094,4.094,0,0,1,.552.029c.674.107,1.031.845,1.1,1.514a1.323,1.323,0,0,1-.553,1.091c-.273.262-.267.461,0,.729s.556.556.834.834c.421.421.531.426.943,0A1.223,1.223,0,0,1,5.468,27.1a2.067,2.067,0,0,1,1.109.476,1.093,1.093,0,0,1,.379.815c.006.131,0,.262,0,.393.007.332.151.478.485.481.37,0,.74,0,1.11,0,.722,0,.76-.037.771-.747a1.777,1.777,0,0,1,.014-.207,1.162,1.162,0,0,1,.706-.958c.147-.067.3-.13.448-.184a1.144,1.144,0,0,1,1.189.214c.13.108.241.239.369.35a.378.378,0,0,0,.542.01q.577-.549,1.129-1.127a.375.375,0,0,0-.011-.56c-.1-.11-.209-.206-.307-.315a1.168,1.168,0,0,1-.24-1.266c.051-.136.109-.271.17-.4a1.167,1.167,0,0,1,1.11-.726c.115,0,.231,0,.347,0a.409.409,0,0,0,.454-.461c0-.37,0-.74,0-1.11,0-.768-.009-.777-.765-.794a1.212,1.212,0,0,1-1.173-.783c-.049-.113-.1-.226-.141-.341a1.177,1.177,0,0,1,.262-1.3c.089-.1.189-.182.275-.28a.39.39,0,0,0,0-.6q-.53-.548-1.079-1.079a.387.387,0,0,0-.579,0c-.116.1-.217.219-.333.32a1.154,1.154,0,0,1-1.226.234c-.13-.047-.258-.1-.385-.156a1.2,1.2,0,0,1-.774-1.154c0-.108,0-.216,0-.324-.009-.311-.144-.449-.456-.454-.37,0-.74,0-1.11,0-.768,0-.791.02-.8.787a1.109,1.109,0,0,1-.518,1,3.49,3.49,0,0,1-.825.347,1.065,1.065,0,0,1-1.01-.256c-.107-.089-.2-.192-.3-.288a.424.424,0,0,0-.7,0q-.5.486-.981.982a.422.422,0,0,0-.006.682,2.033,2.033,0,0,1,.314.337c.13.227.225.475.3.646" transform="translate(-0.095 -5.427)"/>
    <path id="Path_4208" data-name="Path 4208" d="M.25,21.131c.025-.053.054-.106.076-.16a1.148,1.148,0,0,1,1.03-.768c.069-.006.139-.007.208-.007.558,0,.763-.165.845-.719a.6.6,0,0,0-.126-.372c-.1-.144-.246-.254-.358-.39a1.127,1.127,0,0,1-.009-1.449,16.642,16.642,0,0,1,1.32-1.325,1.119,1.119,0,0,1,1.467.011c.13.108.247.232.368.351a.423.423,0,0,0,.486.1c.115-.046.229-.092.341-.141a.42.42,0,0,0,.273-.416c0-.146,0-.293,0-.439A1.157,1.157,0,0,1,7.3,14.283q.843-.027,1.687,0a1.147,1.147,0,0,1,1.117,1.107c0,.061.006.123.006.185,0,.572.14.748.713.85a.581.581,0,0,0,.372-.116c.151-.1.266-.257.41-.371a1.123,1.123,0,0,1,1.467.02c.445.4.871.83,1.275,1.273a1.131,1.131,0,0,1,.012,1.486c-.112.137-.24.26-.364.387a.413.413,0,0,0-.1.467c.033.086.077.169.1.257a.508.508,0,0,0,.564.372,2.317,2.317,0,0,1,.639.06,1.1,1.1,0,0,1,.814,1.035c.017.569.02,1.141,0,1.71a1.157,1.157,0,0,1-1.124,1.13c-.054,0-.108,0-.162,0-.583,0-.742.12-.854.7a.61.61,0,0,0,.123.392c.1.145.248.253.358.39a1.11,1.11,0,0,1,.016,1.43,16.253,16.253,0,0,1-1.355,1.355,1.12,1.12,0,0,1-1.412,0c-.144-.115-.273-.25-.406-.377a.408.408,0,0,0-.486-.1c-.105.046-.211.092-.319.133a.426.426,0,0,0-.291.428c0,.123,0,.247,0,.37a1.173,1.173,0,0,1-.84,1.146.682.682,0,0,0-.1.052H7.142a.9.9,0,0,0-.1-.046,1.185,1.185,0,0,1-.868-1.172,1.641,1.641,0,0,0-.009-.391.61.61,0,0,0-.2-.335c-.508-.333-.665-.309-1.1.113-.017.017-.032.033-.05.049a1.185,1.185,0,0,1-1.717.008c-.369-.348-.724-.713-1.08-1.076a1.083,1.083,0,0,1-.319-1.12,2.162,2.162,0,0,1,.46-.724c.3-.339.322-.372.145-.793-.018-.043-.038-.084-.054-.128a.431.431,0,0,0-.461-.307,3.454,3.454,0,0,1-.439-.006,1.232,1.232,0,0,1-1.1-.964ZM3.24,19.3a2.216,2.216,0,0,1-.547,1.324,1.558,1.558,0,0,1-.62.323,2.018,2.018,0,0,1-.55.037c-.336.01-.481.146-.484.478,0,.462,0,.925,0,1.387,0,.358.148.494.513.5a4.094,4.094,0,0,1,.552.029c.674.107,1.031.845,1.1,1.514a1.323,1.323,0,0,1-.553,1.091c-.273.262-.267.461,0,.729s.556.556.834.834c.421.421.531.426.943,0A1.223,1.223,0,0,1,5.468,27.1a2.067,2.067,0,0,1,1.109.476,1.093,1.093,0,0,1,.379.815c.006.131,0,.262,0,.393.007.332.151.478.485.481.37,0,.74,0,1.11,0,.722,0,.76-.037.771-.747a1.777,1.777,0,0,1,.014-.207,1.162,1.162,0,0,1,.706-.958c.147-.067.3-.13.448-.184a1.144,1.144,0,0,1,1.189.214c.13.108.241.239.369.35a.378.378,0,0,0,.542.01q.577-.549,1.129-1.127a.375.375,0,0,0-.011-.56c-.1-.11-.209-.206-.307-.315a1.168,1.168,0,0,1-.24-1.266c.051-.136.109-.271.17-.4a1.167,1.167,0,0,1,1.11-.726c.115,0,.231,0,.347,0a.409.409,0,0,0,.454-.461c0-.37,0-.74,0-1.11,0-.768-.009-.777-.765-.794a1.212,1.212,0,0,1-1.173-.783c-.049-.113-.1-.226-.141-.341a1.177,1.177,0,0,1,.262-1.3c.089-.1.189-.182.275-.28a.39.39,0,0,0,0-.6q-.53-.548-1.079-1.079a.387.387,0,0,0-.579,0c-.116.1-.217.219-.333.32a1.154,1.154,0,0,1-1.226.234c-.13-.047-.258-.1-.385-.156a1.2,1.2,0,0,1-.774-1.154c0-.108,0-.216,0-.324-.009-.311-.144-.449-.456-.454-.37,0-.74,0-1.11,0-.768,0-.791.02-.8.787a1.109,1.109,0,0,1-.518,1,3.49,3.49,0,0,1-.825.347,1.065,1.065,0,0,1-1.01-.256c-.107-.089-.2-.192-.3-.288a.424.424,0,0,0-.7,0q-.5.486-.981.982a.422.422,0,0,0-.006.682,2.033,2.033,0,0,1,.314.337C3.066,18.88,3.161,19.127,3.24,19.3Z" transform="translate(-0.095 -5.427)" fill="none" stroke="#000" stroke-miterlimit="10" stroke-width="0.5"/>
    <path id="Path_4209" data-name="Path 4209" d="M15.937.253c.363,0,.725,0,1.087,0a1.2,1.2,0,0,1,1.266,1.261c0,.362.007.724,0,1.087a.438.438,0,0,0,.3.463c.328.132.656.266.98.409a.44.44,0,0,0,.543-.11q.379-.389.768-.768a1.185,1.185,0,0,1,1.784-.006q.793.776,1.571,1.568a1.183,1.183,0,0,1,0,1.783c-.253.259-.508.516-.768.768a.446.446,0,0,0-.105.563c.143.315.27.638.4.96a.438.438,0,0,0,.461.307c.354-.009.709,0,1.063,0a1.2,1.2,0,0,1,1.29,1.284q0,1.088,0,2.174a1.2,1.2,0,0,1-1.265,1.283c-.362.007-.724.006-1.087,0a.449.449,0,0,0-.47.329c-.12.316-.25.63-.39.937a.45.45,0,0,0,.1.565q.389.38.768.768a1.183,1.183,0,0,1,0,1.783q-.778.791-1.57,1.569a1.181,1.181,0,0,1-1.766.009c-.4-.391-.8-.792-1.2-1.192a.414.414,0,0,1-.064-.613c.17-.175.408-.154.628.063.379.373.752.752,1.13,1.127.288.286.473.284.763,0q.737-.734,1.472-1.472c.289-.29.286-.466-.008-.763-.244-.246-.493-.489-.734-.737a1.17,1.17,0,0,1-.258-1.4q.2-.478.4-.96a1.168,1.168,0,0,1,1.132-.8c.37-.008.741,0,1.11,0s.513-.144.514-.521q0-1.064,0-2.127c0-.36-.145-.507-.5-.511s-.741,0-1.11,0a1.161,1.161,0,0,1-1.138-.786c-.137-.334-.275-.669-.415-1a1.155,1.155,0,0,1,.249-1.34c.256-.268.524-.524.783-.788s.265-.453.007-.713q-.757-.764-1.521-1.521c-.263-.262-.451-.262-.713-.006s-.511.514-.77.767a1.172,1.172,0,0,1-1.4.256c-.319-.135-.64-.265-.96-.4A1.168,1.168,0,0,1,17.5,2.639c0-.354,0-.709,0-1.063,0-.392-.141-.534-.527-.535q-1.063,0-2.127,0c-.361,0-.5.141-.506.506,0,.347,0,.694,0,1.04a1.188,1.188,0,0,1-.856,1.231c-.315.123-.625.26-.938.391a1.148,1.148,0,0,1-1.323-.237c-.281-.264-.545-.545-.821-.814a.412.412,0,0,0-.68,0q-.782.772-1.554,1.554a.415.415,0,0,0,0,.68c.389.4.785.785,1.175,1.18a.393.393,0,0,1,.1.538.369.369,0,0,1-.58.077c-.487-.472-.976-.944-1.425-1.451a1.075,1.075,0,0,1,.027-1.408c.6-.641,1.22-1.265,1.863-1.863a1.12,1.12,0,0,1,1.537.05c.28.253.538.53.807.8s.351.272.674.131q.423-.185.851-.357c.3-.12.35-.193.354-.517.006-.408-.012-.819.021-1.224A1.148,1.148,0,0,1,14.734.256c.4-.011.8,0,1.2,0Z" transform="translate(-2.732 -0.095)"/>
    <path id="Path_4210" data-name="Path 4210" d="M15.937.253c.363,0,.725,0,1.087,0a1.2,1.2,0,0,1,1.266,1.261c0,.362.007.724,0,1.087a.438.438,0,0,0,.3.463c.328.132.656.266.98.409a.44.44,0,0,0,.543-.11q.379-.389.768-.768a1.185,1.185,0,0,1,1.784-.006q.793.776,1.571,1.568a1.183,1.183,0,0,1,0,1.783c-.253.259-.508.516-.768.768a.446.446,0,0,0-.105.563c.143.315.27.638.4.96a.438.438,0,0,0,.461.307c.354-.009.709,0,1.063,0a1.2,1.2,0,0,1,1.29,1.284q0,1.088,0,2.174a1.2,1.2,0,0,1-1.265,1.283c-.362.007-.724.006-1.087,0a.449.449,0,0,0-.47.329c-.12.316-.25.63-.39.937a.45.45,0,0,0,.1.565q.389.38.768.768a1.183,1.183,0,0,1,0,1.783q-.778.791-1.57,1.569a1.181,1.181,0,0,1-1.766.009c-.4-.391-.8-.792-1.2-1.192a.414.414,0,0,1-.064-.613c.17-.175.408-.154.628.063.379.373.752.752,1.13,1.127.288.286.473.284.763,0q.737-.734,1.472-1.472c.289-.29.286-.466-.008-.763-.244-.246-.493-.489-.734-.737a1.17,1.17,0,0,1-.258-1.4q.2-.478.4-.96a1.168,1.168,0,0,1,1.132-.8c.37-.008.741,0,1.11,0s.513-.144.514-.521q0-1.064,0-2.127c0-.36-.145-.507-.5-.511s-.741,0-1.11,0a1.161,1.161,0,0,1-1.138-.786c-.137-.334-.275-.669-.415-1a1.155,1.155,0,0,1,.249-1.34c.256-.268.524-.524.783-.788s.265-.453.007-.713q-.757-.764-1.521-1.521c-.263-.262-.451-.262-.713-.006s-.511.514-.77.767a1.172,1.172,0,0,1-1.4.256c-.319-.135-.64-.265-.96-.4A1.168,1.168,0,0,1,17.5,2.639c0-.354,0-.709,0-1.063,0-.392-.141-.534-.527-.535q-1.063,0-2.127,0c-.361,0-.5.141-.506.506,0,.347,0,.694,0,1.04a1.188,1.188,0,0,1-.856,1.231c-.315.123-.625.26-.938.391a1.148,1.148,0,0,1-1.323-.237c-.281-.264-.545-.545-.821-.814a.412.412,0,0,0-.68,0q-.782.772-1.554,1.554a.415.415,0,0,0,0,.68c.389.4.785.785,1.175,1.18a.393.393,0,0,1,.1.538.369.369,0,0,1-.58.077c-.487-.472-.976-.944-1.425-1.451a1.075,1.075,0,0,1,.027-1.408c.6-.641,1.22-1.265,1.863-1.863a1.12,1.12,0,0,1,1.537.05c.28.253.538.53.807.8s.351.272.674.131q.423-.185.851-.357c.3-.12.35-.193.354-.517.006-.408-.012-.819.021-1.224A1.148,1.148,0,0,1,14.734.256c.4-.011.8,0,1.2,0Z" transform="translate(-2.732 -0.095)" fill="none" stroke="#000" stroke-miterlimit="10" stroke-width="0.5"/>
    <path id="Path_4211" data-name="Path 4211" d="M18.983,9.184a5.1,5.1,0,0,1,5.039,4.183,5.01,5.01,0,0,1-1.356,4.509.4.4,0,0,1-.592.072.4.4,0,0,1,.022-.61,4.421,4.421,0,0,0,1.181-2.283,4.337,4.337,0,0,0-7.2-3.968c-.051.047-.1.1-.155.139a.4.4,0,0,1-.578-.022.384.384,0,0,1,.053-.556,7.046,7.046,0,0,1,.791-.635,4.987,4.987,0,0,1,2.792-.829" transform="translate(-5.8 -3.493)"/>
    <path id="Path_4212" data-name="Path 4212" d="M18.983,9.184a5.1,5.1,0,0,1,5.039,4.183,5.01,5.01,0,0,1-1.356,4.509.4.4,0,0,1-.592.072.4.4,0,0,1,.022-.61,4.421,4.421,0,0,0,1.181-2.283,4.337,4.337,0,0,0-7.2-3.968c-.051.047-.1.1-.155.139a.4.4,0,0,1-.578-.022.384.384,0,0,1,.053-.556,7.046,7.046,0,0,1,.791-.635A4.987,4.987,0,0,1,18.983,9.184Z" transform="translate(-5.8 -3.493)" fill="none" stroke="#000" stroke-miterlimit="10" stroke-width="0.5"/>
    <path id="Path_4213" data-name="Path 4213" d="M10.836,20.006a3.548,3.548,0,0,1,3.531,3.579,3.438,3.438,0,0,1-3.59,3.507,3.543,3.543,0,0,1,.059-7.086m2.736,3.549a2.758,2.758,0,1,0-2.743,2.756,2.748,2.748,0,0,0,2.743-2.756" transform="translate(-2.765 -7.609)"/>
    <path id="Path_4214" data-name="Path 4214" d="M10.836,20.006a3.548,3.548,0,0,1,3.531,3.579,3.438,3.438,0,0,1-3.59,3.507,3.543,3.543,0,0,1,.059-7.086Zm2.736,3.549a2.758,2.758,0,1,0-2.743,2.756A2.748,2.748,0,0,0,13.572,23.556Z" transform="translate(-2.765 -7.609)" fill="none" stroke="#000" stroke-miterlimit="10" stroke-width="0.5"/>
  </g>
</svg>
