<svg xmlns="http://www.w3.org/2000/svg" xmlns:xlink="http://www.w3.org/1999/xlink" width="22" height="21.776" viewBox="0 0 22 21.776">
  <defs>
    <clipPath id="clip-path">
      <rect id="Rectangle_502" data-name="Rectangle 502" width="22" height="21.776"/>
    </clipPath>
  </defs>
  <g id="Group_3234" data-name="Group 3234" clip-path="url(#clip-path)">
    <path id="Path_4254" data-name="Path 4254" d="M.006,8.484C.006,7.13.016,5.777,0,4.423A.911.911,0,0,1,.566,3.5Q3.907,1.835,7.237.139a1.039,1.039,0,0,1,1.029,0Q11.6,1.829,14.936,3.5a.831.831,0,0,1,.569.723c.009.4-.251.6-.57.761-2.046,1.029-4.089,2.066-6.14,3.085a.487.487,0,0,0-.316.514c.008,2.432,0,4.864,0,7.3,0,.112,0,.226,0,.338a.72.72,0,0,1-1.087.656Q3.9,15.128.42,13.359A.77.77,0,0,1,0,12.583c.008-1.366,0-2.732,0-4.1M1.449,5.42c0,2.261,0,4.441.011,6.621a.5.5,0,0,0,.261.338c1.659.851,3.325,1.687,4.99,2.527.085.043.178.069.276.108a.7.7,0,0,0,.031-.131c0-2.143.007-4.287-.008-6.429a.5.5,0,0,0-.249-.349c-.809-.426-1.628-.829-2.444-1.24L1.449,5.42m11.7-1.17c-.159-.087-.268-.152-.38-.209-1.565-.789-3.133-1.573-4.691-2.372a.636.636,0,0,0-.657.007c-1.515.777-3.039,1.536-4.559,2.3-.149.075-.3.157-.446.237.033.049.041.078.06.087q2.563,1.3,5.13,2.584a.4.4,0,0,0,.308,0c1.724-.861,3.443-1.729,5.236-2.633" transform="translate(0 -0.001)"/>
    <path id="Path_4255" data-name="Path 4255" d="M19.059,16.311c.472.462.911.888,1.344,1.318.506.505.508.843.009,1.344q-.876.879-1.756,1.754a.771.771,0,0,1-1.287-.006c-.441-.438-.873-.885-1.354-1.373l-.3.76a.724.724,0,0,1-.737.529.71.71,0,0,1-.69-.581q-.41-1.366-.828-2.73c-.039-.129-.085-.254-.142-.419L10.952,18.1c-.279.141-.556.288-.839.422a.734.734,0,0,1-1.136-.695c-.014-.814,0-1.63,0-2.445,0-1.892.009-3.785-.006-5.678a.991.991,0,0,1,.617-1c2.207-1.1,4.4-2.218,6.605-3.328.782-.394,1.265-.094,1.266.785,0,2.456,0,4.913-.006,7.37,0,.263.057.4.335.471.654.169,1.3.385,1.944.573a.736.736,0,0,1,.618.706.745.745,0,0,1-.569.749c-.219.083-.435.174-.719.287M16,7.128c-.12.047-.19.068-.254.1-1.686.849-3.369,1.706-5.06,2.546a.409.409,0,0,0-.246.439c.006,2.054,0,4.108,0,6.161,0,.1.011.194.022.34.787-.4,1.547-.77,2.294-1.165.061-.032.091-.216.065-.31q-.228-.831-.493-1.652a.74.74,0,0,1,.964-.958c.692.218,1.388.42,2.083.627.2.059.4.109.622.17Zm-1.9,7.266c.342,1.141.659,2.2.98,3.267.589-.443.863-.422,1.363.079.518.521,1.033,1.047,1.535,1.555.363-.353.684-.665,1.039-1.013-.512-.508-1.02-1.007-1.524-1.51-.548-.545-.569-.756-.137-1.4L14.1,14.395" transform="translate(1.215 0.704)"/>
  </g>
</svg>
