<svg xmlns="http://www.w3.org/2000/svg" width="23.103" height="25.046" viewBox="0 0 23.103 25.046">
  <g id="Group_3181" data-name="Group 3181" transform="translate(-382.04 -429.88)">
    <path id="Path_2537" data-name="Path 2537" d="M404.486,450.248a12.081,12.081,0,0,0-3.257-5.862c-.6-.569-1.291-1.041-1.953-1.568a7.715,7.715,0,0,0-10.355-11.358,7.515,7.515,0,0,0-2.894,4.642,7.628,7.628,0,0,0,1.929,6.76,1.1,1.1,0,0,1-.115.089,10.5,10.5,0,0,0-4.365,5.059,18.873,18.873,0,0,0-1.435,6.917h1.913c.081-.793.136-1.571.241-2.341a13.254,13.254,0,0,1,1.537-4.8,8.2,8.2,0,0,1,3.682-3.471.428.428,0,0,1,.44.01,7.516,7.516,0,0,0,7.468,0,.43.43,0,0,1,.441-.02,8.578,8.578,0,0,1,4.322,4.795,15.606,15.606,0,0,1,1.031,4.581c.035.408.06.817.09,1.245h1.938A20.658,20.658,0,0,0,404.486,450.248Zm-10.9-6.871a5.783,5.783,0,1,1,5.786-5.78A5.812,5.812,0,0,1,393.588,443.376Z" transform="translate(0)"/>
  </g>
</svg>
