<svg xmlns="http://www.w3.org/2000/svg" width="27.884" height="27.884" viewBox="0 0 27.884 27.884">
  <g id="Group_4909" data-name="Group 4909" transform="translate(-276.26 -138.675)">
    <g id="Path_1507" data-name="Path 1507" transform="translate(276.26 138.675)" fill="none">
      <path d="M13.942,0A13.942,13.942,0,1,1,0,13.942,13.942,13.942,0,0,1,13.942,0Z" stroke="none"/>
      <path d="M 13.94184494018555 0.9999942779541016 C 10.48495483398438 0.9999942779541016 7.234964370727539 2.346185684204102 4.79057502746582 4.79057502746582 C 2.346185684204102 7.234964370727539 0.9999942779541016 10.48495483398438 0.9999942779541016 13.94184494018555 C 0.9999942779541016 17.39873504638672 2.346185684204102 20.64871597290039 4.79057502746582 23.09310531616211 C 7.234964370727539 25.53749465942383 10.48495483398438 26.8836841583252 13.94184494018555 26.8836841583252 C 17.39873504638672 26.8836841583252 20.64871597290039 25.53749465942383 23.09310531616211 23.09310531616211 C 25.53749465942383 20.64871597290039 26.8836841583252 17.39873504638672 26.8836841583252 13.94184494018555 C 26.8836841583252 10.48495483398438 25.53749465942383 7.234964370727539 23.09310531616211 4.79057502746582 C 20.64871597290039 2.346185684204102 17.39873504638672 0.9999942779541016 13.94184494018555 0.9999942779541016 M 13.94184494018555 -5.7220458984375e-06 C 21.64170455932617 -5.7220458984375e-06 27.8836841583252 6.241975784301758 27.8836841583252 13.94184494018555 C 27.8836841583252 21.64170455932617 21.64170455932617 27.8836841583252 13.94184494018555 27.8836841583252 C 6.241975784301758 27.8836841583252 -5.7220458984375e-06 21.64170455932617 -5.7220458984375e-06 13.94184494018555 C -5.7220458984375e-06 6.241975784301758 6.241975784301758 -5.7220458984375e-06 13.94184494018555 -5.7220458984375e-06 Z" stroke="none" fill="#000"/>
    </g>
    <path id="Icon_awesome-instagram" data-name="Icon awesome-instagram" d="M6.148,5.235A3.154,3.154,0,1,0,9.3,8.389,3.149,3.149,0,0,0,6.148,5.235Zm0,5.2A2.051,2.051,0,1,1,8.2,8.389a2.054,2.054,0,0,1-2.051,2.051Zm4.019-5.334a.736.736,0,1,1-.736-.736A.734.734,0,0,1,10.167,5.106Zm2.089.747a3.641,3.641,0,0,0-.994-2.578,3.665,3.665,0,0,0-2.578-.994c-1.016-.058-4.06-.058-5.076,0a3.659,3.659,0,0,0-2.578.991A3.653,3.653,0,0,0,.038,5.849c-.058,1.016-.058,4.06,0,5.076A3.641,3.641,0,0,0,1.032,13.5a3.669,3.669,0,0,0,2.578.994c1.016.058,4.06.058,5.076,0a3.641,3.641,0,0,0,2.578-.994,3.665,3.665,0,0,0,.994-2.578c.058-1.016.058-4.057,0-5.073Zm-1.312,6.163a2.076,2.076,0,0,1-1.169,1.169,13.558,13.558,0,0,1-3.626.247,13.663,13.663,0,0,1-3.626-.247,2.076,2.076,0,0,1-1.169-1.169,13.558,13.558,0,0,1-.247-3.626,13.663,13.663,0,0,1,.247-3.626A2.076,2.076,0,0,1,2.522,3.593a13.558,13.558,0,0,1,3.626-.247,13.663,13.663,0,0,1,3.626.247,2.076,2.076,0,0,1,1.169,1.169,13.558,13.558,0,0,1,.247,3.626A13.55,13.55,0,0,1,10.944,12.015Z" transform="translate(283.91 144.082)"/>
  </g>
</svg>
